<?xml version="1.0" standalone="no"?>
<!DOCTYPE svg PUBLIC "-//W3C//DTD SVG 20010904//EN"
 "http://www.w3.org/TR/2001/REC-SVG-20010904/DTD/svg10.dtd">
<svg version="1.0" xmlns="http://www.w3.org/2000/svg"
 width="355.000000pt" height="85.000000pt" viewBox="0 0 355.000000 85.000000"
 preserveAspectRatio="xMidYMid meet">

<g transform="translate(0.000000,85.000000) scale(0.100000,-0.100000)"
fill="#00A0A0" stroke="none">
<path d="M609 795 c-36 -7 -99 -27 -140 -44 -127 -53 -134 -67 -24 -45 153 29
246 11 383 -75 43 -26 95 -57 118 -69 l40 -20 46 53 c47 53 50 65 17 65 -10 0
-68 27 -131 59 -103 54 -144 70 -218 84 -14 2 -55 -1 -91 -8z"/>
<path d="M96 685 c-30 -35 -42 -55 -32 -55 8 0 76 -31 150 -69 191 -98 270
-103 447 -31 78 33 127 68 79 57 -14 -3 -61 -11 -106 -17 -134 -20 -204 1
-389 115 -49 30 -92 55 -96 55 -3 0 -27 -25 -53 -55z"/>
<path d="M690 355 c0 -18 5 -25 20 -25 15 0 20 7 20 25 0 18 -5 25 -20 25 -15
0 -20 -7 -20 -25z"/>
<path d="M2700 355 c0 -20 4 -26 18 -23 9 2 17 12 17 23 0 11 -8 21 -17 23
-14 3 -18 -3 -18 -23z"/>
<path d="M510 358 c-1 -2 -2 -60 -3 -131 l-2 -127 68 0 c53 0 67 3 67 15 0 11
-12 15 -45 15 l-45 0 0 115 c0 108 -1 115 -20 115 -11 0 -20 -1 -20 -2z"/>
<path d="M2027 353 c-4 -3 -7 -62 -7 -130 l0 -123 25 0 25 0 0 130 c0 119 -1
130 -18 130 -10 0 -22 -3 -25 -7z"/>
<path d="M2560 319 c0 -12 -8 -23 -20 -26 -23 -6 -27 -33 -5 -33 12 0 15 -14
15 -69 0 -50 4 -74 16 -85 19 -20 18 -20 55 0 33 17 31 29 -4 29 -20 0 -22 6
-25 63 -3 61 -2 62 23 62 16 0 25 6 25 15 0 9 -9 15 -25 15 -20 0 -25 5 -25
25 0 16 -6 25 -15 25 -9 0 -15 -9 -15 -21z"/>
<path d="M2824 315 c-3 -14 -12 -25 -20 -25 -8 0 -14 -7 -14 -15 0 -8 7 -15
15 -15 12 0 15 -15 15 -75 0 -64 3 -76 20 -85 27 -14 82 13 73 36 -4 11 -9 12
-16 5 -27 -27 -37 -11 -37 54 0 63 1 65 25 65 16 0 25 6 25 15 0 9 -9 15 -25
15 -20 0 -25 5 -25 25 0 15 -6 25 -15 25 -8 0 -17 -11 -21 -25z"/>
<path d="M3417 333 c-4 -3 -7 -14 -7 -24 0 -9 -10 -20 -22 -23 l-23 -7 23 -16
c19 -13 22 -24 22 -83 0 -85 13 -99 64 -75 39 19 39 40 0 31 -23 -6 -24 -5
-24 59 0 63 1 65 26 65 31 0 28 23 -4 28 -16 2 -22 10 -22 28 0 23 -18 32 -33
17z"/>
<path d="M690 195 c0 -88 1 -95 20 -95 19 0 20 7 20 95 0 88 -1 95 -20 95 -19
0 -20 -7 -20 -95z"/>
<path d="M810 195 c0 -88 1 -95 20 -95 18 0 20 7 20 64 0 67 15 94 46 82 13
-5 15 -19 12 -76 -3 -67 -2 -70 20 -70 20 0 22 4 22 63 0 62 11 87 37 87 10 0
13 -20 13 -75 0 -74 0 -75 26 -75 20 0 25 4 20 16 -3 9 -6 49 -6 90 0 84 -10
96 -64 76 -20 -8 -34 -8 -40 -2 -14 14 -49 12 -65 -2 -11 -10 -14 -10 -18 0
-3 6 -13 12 -24 12 -17 0 -19 -8 -19 -95z"/>
<path d="M1110 155 c0 -128 1 -135 20 -135 17 0 20 7 20 38 0 46 6 55 31 42
24 -13 64 5 78 37 16 35 14 105 -5 131 -17 25 -62 30 -83 10 -11 -10 -14 -10
-18 0 -3 6 -13 12 -24 12 -18 0 -19 -9 -19 -135z m114 79 c17 -44 -2 -104 -32
-104 -28 0 -42 21 -42 60 0 20 5 41 12 48 17 17 55 15 62 -4z"/>
<path d="M1350 272 c-27 -21 -37 -90 -20 -131 15 -38 54 -52 100 -37 33 10 52
45 20 37 -53 -14 -69 -12 -80 8 -16 31 -5 41 51 41 47 0 49 1 49 28 0 61 -72
93 -120 54z m74 -28 c11 -28 7 -32 -26 -28 -18 1 -34 3 -36 3 -1 1 2 10 8 21
13 24 45 26 54 4z"/>
<path d="M1530 195 c0 -92 1 -95 23 -95 21 0 22 4 19 56 -4 57 14 94 45 94 7
0 13 9 13 20 0 23 -19 26 -39 8 -11 -10 -14 -10 -18 0 -3 6 -13 12 -24 12 -17
0 -19 -8 -19 -95z"/>
<path d="M1679 262 c-17 -22 -20 -37 -17 -79 3 -28 10 -59 17 -67 16 -19 72
-21 89 -4 9 9 12 6 12 -14 0 -37 -23 -52 -71 -45 -33 4 -40 2 -37 -11 4 -19
54 -34 86 -27 12 3 31 14 42 25 18 18 20 34 20 134 l0 113 -60 1 c-53 1 -62
-2 -81 -26z m89 -14 c7 -7 12 -31 12 -55 0 -37 -4 -45 -26 -55 -23 -11 -28
-10 -41 7 -9 13 -13 33 -10 59 7 51 37 72 65 44z"/>
<path d="M2150 195 c0 -88 1 -95 20 -95 18 0 20 7 20 63 0 65 11 87 42 87 16
0 18 -9 18 -75 0 -71 1 -75 23 -75 21 0 22 3 19 83 -4 103 -5 107 -40 107 -15
0 -34 -6 -41 -12 -11 -10 -14 -10 -18 0 -3 6 -13 12 -24 12 -17 0 -19 -8 -19
-95z"/>
<path d="M2378 279 c-11 -6 -18 -22 -18 -39 0 -24 8 -35 41 -55 48 -31 46 -48
-6 -55 -47 -6 -56 -25 -16 -33 95 -19 140 76 56 116 -47 22 -47 47 0 47 24 0
35 5 35 15 0 18 -64 21 -92 4z"/>
<path d="M2700 288 c-1 -2 -2 -45 -3 -96 -2 -89 -1 -92 21 -92 21 0 22 3 22
95 0 88 -1 95 -20 95 -11 0 -20 -1 -20 -2z"/>
<path d="M2962 204 c3 -74 6 -89 23 -100 17 -11 25 -11 50 2 19 10 31 11 33 5
2 -6 12 -11 23 -11 17 0 19 8 19 95 0 88 -1 95 -20 95 -18 0 -20 -7 -20 -65 0
-58 -3 -66 -25 -81 -13 -8 -29 -13 -35 -9 -5 3 -10 40 -10 81 0 68 -2 74 -20
74 -20 0 -21 -5 -18 -86z"/>
<path d="M3179 283 c0 -5 0 -44 1 -88 1 -96 13 -112 66 -90 19 8 34 10 34 4 0
-5 9 -9 20 -9 19 0 20 7 20 95 0 88 -1 95 -20 95 -18 0 -20 -7 -20 -68 0 -63
-2 -70 -24 -80 -13 -6 -27 -8 -30 -5 -3 4 -6 39 -6 80 0 66 -2 73 -20 73 -11
0 -20 -3 -21 -7z"/>
</g>
</svg>
