<?xml version="1.0" standalone="no"?>
<!DOCTYPE svg PUBLIC "-//W3C//DTD SVG 20010904//EN"
 "http://www.w3.org/TR/2001/REC-SVG-20010904/DTD/svg10.dtd">
<svg version="1.0" xmlns="http://www.w3.org/2000/svg"
 width="800.000000pt" height="800.000000pt" viewBox="0 0 800.000000 800.000000"
 preserveAspectRatio="xMidYMid meet">

<g transform="translate(0.000000,800.000000) scale(0.100000,-0.100000)"
fill="#000000" stroke="none">
<path d="M4004 7955 c-8 -19 10 -45 79 -116 57 -59 93 -77 167 -81 40 -3 45
-1 48 20 5 33 -129 167 -183 181 -57 16 -105 14 -111 -4z"/>
<path d="M3726 7944 c-8 -20 83 -117 141 -150 54 -33 149 -38 167 -11 9 16 2
28 -59 84 -38 36 -84 72 -102 79 -46 20 -139 18 -147 -2z"/>
<path d="M4287 7954 c-16 -17 -4 -45 46 -108 64 -81 85 -96 153 -112 43 -10
56 -9 71 1 16 12 16 15 -9 51 -45 69 -118 142 -151 153 -51 16 -102 23 -110
15z"/>
<path d="M3462 7928 c-21 -21 -13 -35 56 -92 79 -64 125 -86 181 -86 94 0 94
29 -1 110 -39 33 -88 65 -107 70 -49 14 -114 13 -129 -2z"/>
<path d="M4557 7924 c-15 -15 -5 -41 46 -114 57 -81 103 -114 175 -126 34 -5
43 -3 48 10 12 31 -97 176 -155 205 -43 23 -103 36 -114 25z"/>
<path d="M3220 7892 c-56 -11 -47 -41 29 -97 80 -59 118 -75 176 -75 52 0 85
14 85 35 0 15 -100 94 -151 121 -34 17 -94 24 -139 16z"/>
<path d="M4827 7873 c-14 -13 -6 -34 43 -117 47 -80 54 -87 114 -116 75 -35
82 -36 95 -12 8 14 1 34 -31 88 -54 92 -74 112 -133 140 -51 24 -76 29 -88 17z"/>
<path d="M2970 7833 c-39 -5 -60 -19 -60 -38 0 -17 133 -102 182 -117 26 -8
56 -8 96 -2 47 7 58 13 60 30 3 18 -12 31 -72 67 -68 42 -136 69 -161 65 -5
-1 -26 -3 -45 -5z"/>
<path d="M5093 7794 c-3 -9 11 -51 33 -96 42 -87 87 -134 149 -157 32 -11 39
-11 52 2 13 13 10 24 -27 98 -51 102 -62 114 -122 145 -55 28 -76 30 -85 8z"/>
<path d="M2704 7751 c-85 -21 -75 -47 40 -106 88 -45 98 -48 149 -42 127 13
129 46 6 110 -92 48 -125 54 -195 38z"/>
<path d="M5354 7705 c-7 -18 38 -135 72 -187 26 -40 115 -93 140 -84 20 8 18
26 -17 113 -33 85 -65 125 -121 154 -45 23 -67 24 -74 4z"/>
<path d="M2433 7648 c-32 -11 -48 -32 -37 -50 8 -13 143 -74 183 -83 37 -8
137 13 153 32 19 23 -1 42 -85 79 -82 36 -148 43 -214 22z"/>
<path d="M5611 7607 c-8 -10 -4 -35 18 -99 35 -104 50 -128 101 -162 41 -27
74 -33 85 -16 9 15 -42 173 -66 205 -26 32 -97 85 -114 85 -7 0 -18 -6 -24
-13z"/>
<path d="M2195 7534 c-79 -29 -67 -56 41 -95 88 -33 140 -36 207 -13 38 13 47
20 47 39 0 20 -12 27 -86 54 -93 34 -147 38 -209 15z"/>
<path d="M3802 7509 c33 -89 69 -212 65 -223 -3 -7 -47 -43 -98 -79 l-92 -67
125 0 124 0 39 -122 39 -122 38 122 38 121 123 3 122 3 -98 70 c-53 38 -97 72
-97 75 0 3 16 53 35 110 19 57 35 108 35 113 0 4 -28 -12 -62 -37 -35 -25 -80
-57 -100 -72 l-37 -26 -88 64 c-112 82 -118 85 -111 67z"/>
<path d="M5860 7490 c-12 -8 -11 -22 9 -105 25 -105 50 -144 118 -186 30 -19
36 -20 49 -7 13 13 12 25 -6 100 -26 103 -46 138 -101 178 -46 33 -48 34 -69
20z"/>
<path d="M1956 7400 c-83 -38 -70 -61 53 -95 95 -27 99 -27 153 -11 31 9 66
25 79 35 21 18 22 21 9 34 -22 23 -150 57 -206 56 -27 0 -66 -9 -88 -19z"/>
<path d="M6093 7344 c-7 -19 15 -159 32 -199 12 -30 96 -115 114 -115 5 0 14
6 20 14 9 11 8 35 -5 103 -20 107 -31 130 -86 177 -45 39 -65 45 -75 20z"/>
<path d="M2772 7224 c-35 -57 -66 -104 -70 -104 -4 0 -58 13 -119 29 -62 16
-113 27 -113 25 0 -3 35 -46 78 -95 42 -50 76 -94 75 -99 -1 -4 -29 -51 -63
-104 -33 -54 -60 -99 -60 -101 0 -2 51 19 113 45 l112 48 30 -32 c17 -17 54
-58 83 -91 l53 -60 -6 95 c-3 52 -8 107 -11 121 -5 25 0 28 111 74 63 26 115
49 115 50 0 1 -54 15 -119 30 l-120 28 -6 66 c-3 36 -9 91 -13 122 l-7 56 -63
-103z"/>
<path d="M5155 7210 c-6 -97 -11 -122 -24 -129 -9 -4 -62 -18 -118 -31 -57
-13 -100 -26 -97 -29 3 -3 51 -25 107 -48 118 -48 112 -37 100 -190 -5 -57 -8
-103 -7 -103 2 0 146 170 155 182 3 5 54 -12 114 -37 59 -25 110 -43 112 -41
2 2 -24 49 -58 104 l-62 101 84 97 c49 58 75 94 63 91 -10 -3 -66 -18 -123
-32 -84 -21 -106 -24 -113 -13 -4 7 -33 55 -64 106 -31 50 -58 92 -59 92 -2 0
-6 -54 -10 -120z"/>
<path d="M1780 7273 c-63 -22 -100 -48 -100 -70 0 -15 7 -24 23 -28 177 -41
193 -41 273 -3 82 41 68 68 -50 92 -79 16 -119 19 -146 9z"/>
<path d="M6318 7189 c-4 -12 7 -131 17 -186 6 -34 88 -133 110 -133 28 0 33
24 23 115 -10 97 -36 156 -84 194 -29 23 -60 27 -66 10z"/>
<path d="M1540 7102 c-64 -33 -80 -47 -80 -68 0 -25 24 -32 146 -41 71 -5 88
-3 127 16 24 12 52 30 62 41 27 30 5 46 -81 59 -103 15 -134 14 -174 -7z"/>
<path d="M6537 7023 c-11 -10 -8 -137 4 -192 13 -61 84 -149 112 -138 14 5 17
21 17 94 0 110 -11 149 -56 201 -33 39 -61 52 -77 35z"/>
<path d="M1359 6936 c-20 -7 -52 -25 -72 -40 -66 -51 -46 -72 73 -78 97 -6
140 3 192 41 76 54 58 76 -67 84 -62 4 -101 2 -126 -7z"/>
<path d="M6747 6838 c-14 -7 -17 -25 -17 -106 0 -104 14 -148 63 -207 21 -25
29 -28 44 -19 15 9 18 27 21 105 3 112 2 121 -38 181 -34 51 -48 60 -73 46z"/>
<path d="M1155 6740 c-59 -28 -98 -64 -93 -86 3 -17 14 -19 118 -19 l116 0 52
39 c40 29 52 44 50 60 -3 20 -10 21 -103 23 -82 2 -107 -1 -140 -17z"/>
<path d="M3683 6705 c-420 -53 -816 -197 -1163 -423 -304 -197 -605 -498 -802
-802 -209 -322 -347 -682 -409 -1068 -26 -165 -36 -502 -20 -667 80 -784 464
-1466 1088 -1932 386 -288 822 -462 1318 -524 128 -16 491 -16 620 0 499 62
949 245 1348 548 131 100 400 369 500 500 258 340 430 720 512 1128 39 196 49
308 49 540 0 251 -22 432 -79 659 -246 976 -1018 1741 -2000 1982 -207 51
-334 65 -600 69 -177 3 -283 0 -362 -10z m612 -56 c292 -29 619 -126 896 -265
790 -396 1319 -1130 1456 -2021 21 -137 24 -564 5 -698 -55 -382 -189 -762
-377 -1065 -211 -340 -535 -664 -875 -875 -214 -132 -496 -251 -753 -316 -641
-163 -1366 -67 -1939 257 -480 271 -858 670 -1098 1159 -166 337 -251 662
-269 1030 -39 765 236 1481 774 2021 482 483 1069 744 1775 788 76 4 285 -3
405 -15z"/>
<path d="M4277 6543 c-13 -12 -7 -41 10 -47 21 -8 48 17 40 38 -6 16 -38 22
-50 9z"/>
<path d="M3900 6460 l0 -30 70 0 c39 0 70 -3 70 -6 0 -3 -34 -54 -75 -114 -41
-60 -75 -118 -75 -129 0 -20 5 -21 125 -21 l125 0 0 30 0 30 -75 0 c-41 0 -75
3 -75 6 0 3 34 54 75 112 41 59 75 117 75 130 0 22 -2 22 -120 22 l-120 0 0
-30z"/>
<path d="M4256 6448 c-5 -19 -36 -277 -36 -292 0 -6 60 -19 66 -14 2 3 11 61
19 129 8 68 17 141 20 162 5 37 5 37 -30 37 -28 0 -36 -4 -39 -22z"/>
<path d="M3608 6453 c-10 -2 -20 -14 -23 -26 -5 -27 -45 -293 -45 -305 0 -4
16 -6 35 -4 32 4 35 7 41 47 6 46 19 55 77 55 22 0 31 -7 44 -35 15 -32 21
-36 53 -33 19 2 35 7 34 11 0 5 -31 73 -69 153 -66 141 -68 144 -99 143 -17
-1 -39 -3 -48 -6z m85 -175 c-2 -5 -17 -8 -34 -8 -26 0 -29 3 -29 34 0 18 3
48 7 66 l6 33 27 -59 c15 -32 25 -62 23 -66z"/>
<path d="M4425 6294 c-20 -84 -34 -158 -30 -164 3 -5 17 -10 30 -10 27 0 30 8
61 151 l18 83 34 -135 c19 -74 35 -135 36 -136 0 0 17 -4 37 -8 l36 -7 39 156
c21 85 36 157 34 159 -3 2 -17 7 -32 11 -26 6 -27 5 -47 -83 -12 -49 -21 -99
-21 -111 0 -43 -13 -11 -41 102 -16 61 -32 115 -36 119 -5 4 -24 12 -45 17
l-36 10 -37 -154z"/>
<path d="M3338 6398 c-32 -11 -34 -20 -13 -78 8 -23 15 -46 15 -49 0 -6 -96
-41 -113 -41 -3 0 -14 25 -23 55 -10 30 -22 55 -28 55 -24 0 -56 -13 -56 -22
0 -6 21 -75 46 -155 l47 -145 30 6 c17 3 32 8 35 11 2 2 -5 32 -17 66 -11 34
-20 63 -18 64 14 12 111 35 117 29 4 -5 15 -33 25 -63 17 -51 18 -53 48 -47
17 3 32 8 34 10 4 4 -91 304 -98 310 -2 2 -16 -1 -31 -6z"/>
<path d="M4796 6185 c-32 -80 -57 -147 -55 -150 7 -6 170 -75 178 -75 4 0 13
11 19 24 10 22 7 25 -53 51 l-64 27 16 34 c19 40 23 40 82 13 35 -15 46 -17
53 -7 17 28 7 45 -43 66 -45 19 -50 24 -44 44 12 40 22 42 80 18 31 -12 58
-21 60 -18 3 2 6 15 7 28 3 21 -6 28 -72 56 -41 18 -82 33 -90 33 -10 1 -34
-46 -74 -144z"/>
<path d="M2783 6263 c-7 -2 -13 -16 -13 -29 0 -19 5 -24 25 -24 30 0 43 24 25
45 -13 16 -17 17 -37 8z"/>
<path d="M2819 6185 l-27 -15 75 -140 c41 -77 79 -140 83 -140 15 0 61 23 58
29 -28 59 -151 281 -156 281 -4 -1 -19 -7 -33 -15z"/>
<path d="M5210 5990 c-24 -87 -43 -162 -43 -166 1 -4 16 -17 35 -28 l35 -20
131 103 c73 56 132 106 132 110 0 4 -13 14 -29 24 l-28 16 -99 -83 c-54 -46
-100 -83 -100 -83 -1 1 16 56 38 122 l39 120 -28 22 c-15 13 -30 23 -33 23 -3
0 -25 -72 -50 -160z"/>
<path d="M2596 6050 c-54 -38 -100 -70 -102 -72 -1 -2 5 -14 15 -27 l18 -24
35 26 34 27 74 -108 c40 -59 75 -109 76 -111 6 -7 54 29 54 40 0 6 -32 56 -70
112 l-71 102 36 30 c34 29 34 31 17 52 l-17 22 -99 -69z"/>
<path d="M3751 6004 c-597 -76 -1124 -410 -1455 -922 -120 -185 -231 -462
-275 -682 -91 -466 -24 -935 194 -1348 301 -569 857 -961 1500 -1058 148 -22
433 -22 579 1 220 33 387 86 593 186 868 421 1314 1388 1074 2327 -187 729
-789 1306 -1531 1466 -216 47 -465 58 -679 30z m439 -49 c251 -17 563 -117
805 -260 401 -236 711 -612 863 -1045 219 -629 112 -1311 -290 -1843 -80 -106
-270 -296 -377 -376 -593 -449 -1380 -526 -2045 -202 -592 288 -995 841 -1091
1495 -21 144 -21 409 0 552 64 430 251 801 559 1110 346 345 782 544 1261 574
108 7 144 6 315 -5z"/>
<path d="M4905 5461 c-22 -10 -55 -35 -74 -54 l-34 -36 -36 24 c-141 93 -339
18 -391 -149 -16 -51 -8 -142 19 -193 26 -51 93 -110 143 -125 40 -12 48 -22
23 -32 -8 -3 -15 -15 -15 -26 0 -16 -6 -20 -33 -20 -60 0 -100 -66 -74 -120
15 -29 15 -30 -60 -125 -41 -53 -80 -94 -87 -91 -138 61 -219 81 -312 73 l-61
-4 -130 206 c-72 113 -177 282 -234 375 l-103 170 -12 -45 c-17 -65 -30 -93
-69 -154 -19 -31 -35 -58 -35 -61 0 -3 93 -122 206 -265 113 -143 207 -266
210 -273 3 -7 -6 -17 -20 -23 -23 -11 -32 -1 -240 262 -119 151 -216 281 -216
291 0 9 23 53 51 97 47 72 50 81 38 103 -15 29 -22 23 -38 -33 -26 -92 -156
-194 -266 -210 l-46 -6 178 -181 c98 -100 219 -226 268 -281 49 -55 100 -112
114 -128 l25 -27 -21 -28 c-142 -192 -134 -471 18 -654 21 -26 39 -49 39 -52
0 -14 -423 -536 -435 -536 -7 0 -18 6 -24 14 -9 11 1 29 45 85 44 57 53 75 44
86 -9 11 -18 11 -53 -6 -53 -24 -70 -24 -64 -1 24 84 24 84 -68 155 -47 37
-88 67 -92 66 -5 0 -27 -24 -50 -53 l-41 -53 64 -49 c35 -27 63 -51 63 -54 0
-3 -13 -20 -29 -39 l-29 -34 -63 51 -64 51 -42 -54 c-23 -29 -42 -57 -42 -62
1 -4 27 -28 60 -53 33 -25 59 -47 59 -50 0 -3 -12 -19 -27 -37 l-28 -32 -64
50 c-35 27 -67 46 -70 42 -45 -54 -82 -104 -78 -108 14 -15 284 -225 288 -225
3 0 28 29 55 65 27 36 52 65 55 65 3 0 15 -6 25 -14 18 -13 14 -20 -66 -120
-46 -59 -90 -115 -97 -125 -11 -15 -4 -24 53 -69 35 -29 66 -52 69 -52 2 0
132 161 287 358 156 196 334 421 396 499 l113 142 57 -22 c74 -27 254 -29 320
-4 l43 16 24 -32 c85 -113 364 -563 513 -827 l59 -105 55 2 c66 2 153 32 157
55 4 22 -201 322 -520 761 l-159 218 23 19 c13 10 26 16 29 12 31 -34 443
-612 623 -874 48 -71 91 -128 95 -128 21 0 120 122 135 166 18 53 21 139 6
179 -5 14 -77 91 -159 171 -136 132 -512 525 -574 600 l-26 31 26 74 c22 61
27 91 27 174 0 112 -22 191 -76 280 -35 57 -39 48 60 173 62 78 67 82 98 76
58 -11 105 29 102 86 -1 26 5 43 24 63 l26 27 20 -33 c39 -67 132 -117 216
-117 224 0 346 271 195 435 l-39 43 31 58 c41 78 39 157 -7 230 -56 91 -182
130 -279 85z m145 -106 c54 -28 75 -98 45 -155 -12 -23 -24 -30 -62 -36 -65
-9 -73 -18 -73 -80 0 -66 16 -84 76 -84 80 0 136 -81 113 -165 -40 -144 -230
-152 -284 -11 -22 58 -7 117 41 159 47 42 46 77 -5 128 -30 31 -46 39 -74 39
-38 0 -47 -7 -77 -56 -10 -18 -38 -41 -64 -54 -139 -67 -275 95 -186 220 32
45 74 63 136 58 64 -5 91 -26 100 -77 10 -58 30 -74 84 -66 75 11 82 19 79 80
-2 42 2 59 17 76 36 40 86 49 134 24z m-1040 -830 c0 -15 6 -25 14 -25 8 0 17
11 20 25 10 38 61 28 54 -11 -2 -11 4 -20 15 -22 12 -2 17 3 17 18 0 19 4 21
27 15 36 -9 37 -10 24 -33 -8 -16 -7 -21 6 -26 15 -6 32 8 33 26 0 9 50 -13
50 -22 0 -3 -5 -11 -12 -18 -9 -9 -9 -15 0 -24 9 -9 16 -8 30 5 18 16 20 16
36 -1 15 -17 15 -20 1 -32 -12 -10 -13 -16 -4 -27 10 -11 14 -11 29 2 15 14
19 13 36 -6 18 -20 18 -21 1 -34 -10 -7 -15 -19 -11 -28 5 -13 9 -14 25 -4 17
10 23 9 35 -8 13 -18 12 -21 -5 -35 -24 -18 -14 -44 13 -34 11 4 22 1 27 -7
14 -22 10 -36 -11 -42 -11 -3 -20 -13 -20 -22 0 -13 6 -16 25 -11 14 4 25 3
25 -1 0 -5 3 -18 6 -30 5 -20 2 -23 -20 -23 -16 0 -26 -5 -26 -15 0 -9 9 -15
25 -15 21 0 25 -5 25 -31 0 -28 -2 -31 -25 -25 -20 5 -25 3 -25 -14 0 -13 7
-20 20 -20 21 0 23 -4 14 -36 -4 -15 -12 -20 -28 -17 -29 6 -43 -23 -15 -30
20 -5 24 -23 10 -46 -7 -10 -13 -11 -30 -2 -17 10 -22 9 -27 -4 -4 -9 1 -21
11 -29 14 -10 15 -16 6 -34 -11 -21 -13 -21 -35 -6 -30 19 -46 1 -22 -25 16
-17 16 -20 1 -35 -20 -19 -20 -19 -45 -4 -25 16 -38 3 -21 -23 10 -18 10 -23
-6 -35 -24 -18 -31 -17 -38 5 -9 29 -38 15 -31 -15 5 -17 1 -26 -13 -34 -26
-14 -28 -13 -34 10 -8 32 -38 25 -35 -7 2 -23 -1 -29 -20 -31 -17 -3 -25 2
-29 17 -8 30 -33 26 -33 -4 0 -34 -47 -37 -52 -3 -2 13 -11 24 -20 26 -14 3
-18 -3 -18 -23 0 -22 -4 -26 -22 -23 -17 2 -24 11 -26 31 -4 31 -28 36 -37 7
-11 -36 -57 -19 -53 20 4 29 -18 38 -27 11 -7 -24 -13 -25 -38 -7 -15 12 -16
18 -8 35 15 27 -4 38 -28 17 -15 -14 -20 -14 -37 -2 -16 13 -17 18 -6 36 18
30 5 44 -24 26 -22 -15 -24 -15 -34 5 -9 16 -8 25 6 40 15 17 15 19 0 25 -9 3
-23 1 -30 -6 -12 -9 -17 -7 -26 11 -11 19 -9 24 9 38 25 19 15 39 -19 37 -33
-1 -42 39 -10 47 27 7 15 39 -14 35 -16 -2 -22 3 -24 25 -3 23 0 27 22 27 18
0 24 4 20 15 -4 8 -15 15 -25 15 -15 0 -19 7 -19 31 0 28 2 31 25 25 20 -5 25
-3 25 14 0 14 -7 20 -21 20 -16 0 -20 5 -17 28 3 23 7 27 31 24 32 -4 38 23 7
33 -23 7 -25 15 -7 39 11 15 18 16 34 7 29 -15 40 13 13 32 -18 12 -18 15 -4
36 15 20 18 21 33 7 13 -12 20 -13 29 -4 9 9 8 16 -5 30 -15 17 -16 20 0 35
15 16 18 15 35 0 25 -23 46 -4 29 25 -10 16 -9 22 8 34 18 13 21 12 35 -5 21
-28 47 -13 31 18 -10 18 -9 22 11 30 27 10 38 6 38 -15 0 -8 9 -14 19 -14 15
0 19 6 18 27 -2 22 3 29 19 31 15 2 23 -3 27 -17 8 -30 37 -27 37 4 0 20 5 25
25 25 20 0 25 -5 25 -25z"/>
<path d="M3814 4256 c-111 -51 -160 -176 -118 -299 28 -82 132 -157 218 -157
51 0 114 22 147 51 l34 30 -32 -16 c-66 -32 -178 -11 -224 41 -51 58 -68 159
-36 219 33 65 112 115 179 115 18 0 53 -9 77 -21 44 -19 44 -19 27 0 -56 62
-182 79 -272 37z"/>
<path d="M4198 4106 c-3 -35 -7 -41 -38 -52 l-35 -12 28 -11 c16 -6 33 -11 38
-11 5 0 9 -19 9 -42 l0 -43 25 32 c23 29 28 31 58 22 17 -5 33 -9 35 -9 2 0
-5 15 -17 33 l-20 33 27 34 c21 27 23 32 8 27 -55 -21 -68 -20 -91 9 l-23 29
-4 -39z"/>
<path d="M3225 5457 c-84 -28 -162 -74 -216 -128 -67 -67 -99 -129 -99 -192 0
-41 3 -48 30 -62 54 -28 124 -15 205 36 l50 32 -77 71 c-43 40 -78 79 -78 88
0 37 161 138 221 138 30 0 45 -15 84 -83 31 -54 44 -52 52 10 11 80 -72 123
-172 90z"/>
<path d="M3185 5366 c-99 -47 -99 -46 -25 -120 35 -36 68 -66 72 -66 17 0 58
101 58 143 0 72 -24 82 -105 43z"/>
<path d="M2332 5841 l-74 -68 107 -116 c59 -65 111 -117 116 -117 9 0 141 117
147 130 1 4 -7 15 -18 25 -20 18 -21 18 -63 -23 -24 -23 -48 -42 -54 -42 -6 0
-21 12 -33 27 l-22 28 47 40 c45 39 46 41 27 58 -25 23 -26 22 -72 -19 l-41
-37 -25 23 -24 24 47 48 c47 48 47 48 28 67 -20 19 -21 19 -93 -48z"/>
<path d="M5490 5803 c-52 -58 -99 -112 -103 -120 -6 -11 8 -30 54 -71 82 -75
86 -77 111 -56 20 18 19 19 -34 65 l-53 47 24 26 c14 14 29 26 35 26 6 0 27
-17 48 -37 l38 -37 21 21 21 21 -46 43 -47 43 25 24 24 25 49 -41 48 -42 20
20 20 21 -70 64 c-39 35 -74 64 -80 64 -5 0 -53 -47 -105 -106z"/>
<path d="M2162 5675 c-12 -15 -22 -32 -22 -37 0 -5 14 -35 30 -68 17 -33 30
-62 30 -64 0 -3 -25 4 -57 15 -31 10 -64 19 -73 19 -16 0 -67 -46 -59 -54 2
-2 49 -13 103 -25 55 -11 107 -26 116 -33 10 -7 34 -26 54 -42 35 -28 37 -28
56 -11 29 26 25 38 -28 81 -43 34 -53 50 -88 143 l-40 104 -22 -28z"/>
<path d="M5803 5469 c-132 -81 -132 -81 -116 -105 8 -13 19 -24 24 -24 4 0 51
27 103 60 53 33 99 60 103 60 4 0 -9 -17 -28 -37 -20 -21 -57 -64 -83 -95 -42
-51 -46 -59 -34 -77 17 -28 27 -27 148 14 57 19 105 33 107 31 2 -2 -39 -36
-92 -75 l-96 -72 18 -29 c9 -16 21 -26 27 -23 6 4 63 47 126 97 63 49 117 91
119 93 5 3 -13 39 -34 67 -13 17 -17 17 -112 -14 -54 -18 -105 -35 -113 -38
-8 -3 19 34 60 82 l74 88 -21 37 c-11 20 -27 37 -34 38 -8 2 -73 -34 -146 -78z"/>
<path d="M1857 5417 c-3 -8 1 -23 8 -34 11 -14 18 -16 32 -7 28 17 23 48 -8
52 -16 2 -29 -3 -32 -11z"/>
<path d="M1931 5372 l-20 -29 138 -90 138 -90 18 29 c9 16 13 33 9 38 -11 9
-177 119 -226 148 l-36 23 -21 -29z"/>
<path d="M1826 5179 c-20 -19 -47 -59 -60 -91 l-25 -56 138 -71 c77 -39 143
-71 148 -71 12 0 35 48 29 59 -3 4 -27 18 -55 31 -28 13 -51 27 -51 32 0 19
43 50 63 45 87 -21 95 -20 112 12 15 29 15 32 -2 38 -10 4 -48 7 -85 8 -63 0
-68 2 -68 21 0 33 -31 64 -71 70 -32 5 -42 2 -73 -27z m89 -62 c12 -19 13 -30
4 -55 -6 -18 -13 -32 -15 -32 -13 0 -84 42 -84 49 0 18 42 61 60 61 11 0 26
-11 35 -23z"/>
<path d="M6051 5059 c-74 -10 -136 -20 -138 -22 -2 -2 2 -17 7 -34 10 -29 13
-30 58 -25 l48 4 19 -42 19 -42 -33 -30 -34 -30 17 -35 16 -34 125 112 c69 62
125 116 125 120 0 5 -8 24 -17 44 -20 42 -17 41 -212 14z m119 -76 c-64 -56
-67 -57 -79 -21 -6 17 -9 33 -7 35 4 4 84 20 110 22 15 1 8 -9 -24 -36z"/>
<path d="M1671 4869 c-6 -18 -10 -33 -9 -34 2 -1 48 -17 102 -35 111 -37 152
-66 140 -103 -17 -58 -49 -60 -182 -16 -97 32 -109 31 -114 -10 -3 -22 6 -27
97 -57 109 -37 168 -42 204 -18 31 22 51 73 51 130 0 65 -34 94 -158 135 -53
17 -102 34 -108 36 -7 2 -17 -10 -23 -28z"/>
<path d="M6201 4744 c-79 -24 -145 -45 -147 -47 -2 -1 9 -43 24 -92 23 -75 32
-91 50 -93 31 -5 37 19 17 78 -9 28 -15 53 -14 55 2 2 58 19 123 39 66 20 122
38 124 40 8 9 -10 66 -21 65 -7 -1 -77 -21 -156 -45z"/>
<path d="M1560 4466 l0 -34 60 -7 61 -7 -6 -37 c-16 -94 -15 -93 -43 -87 -103
20 -99 21 -104 -18 -4 -33 -2 -36 27 -41 111 -19 288 -45 290 -43 1 2 5 17 8
35 l6 31 -70 12 c-57 10 -69 15 -65 28 2 10 7 38 11 63 l6 45 65 -9 c36 -5 66
-8 68 -6 2 2 7 18 10 35 l7 30 -148 22 c-192 29 -183 29 -183 -12z"/>
<path d="M6275 4458 l-151 -29 4 -35 c2 -19 8 -34 12 -34 8 0 264 47 296 55
17 4 19 10 16 40 -2 19 -9 34 -16 34 -6 -1 -79 -15 -161 -31z"/>
<path d="M6476 4474 c-7 -19 10 -44 29 -44 19 0 36 25 29 44 -3 9 -16 16 -29
16 -13 0 -26 -7 -29 -16z"/>
<path d="M6380 4262 c-78 -51 -90 -56 -152 -60 l-68 -4 0 -34 0 -34 74 0 c67
0 84 -4 171 -45 l96 -44 -7 37 c-8 46 -8 46 -74 67 -30 10 -59 20 -64 23 -5 3
21 20 57 39 66 33 67 34 67 73 0 22 -3 40 -7 39 -5 0 -46 -26 -93 -57z"/>
<path d="M1815 4105 c-5 -2 -76 -9 -157 -15 l-148 -13 0 -44 c0 -51 1 -52 140
-88 52 -13 93 -24 90 -25 -3 -1 -52 -15 -110 -33 l-105 -32 0 -50 0 -50 163
-3 162 -2 0 30 0 30 -132 1 c-88 0 -125 3 -108 9 14 5 71 23 128 40 98 30 102
32 102 59 0 28 -2 29 -127 62 l-128 34 50 7 c28 3 75 7 105 7 87 2 100 8 100
47 0 33 -3 36 -25 29z"/>
<path d="M6167 3924 c-4 -22 -7 -69 -7 -106 0 -65 1 -68 24 -68 25 0 36 28 36
96 0 33 1 34 40 34 l40 0 0 -60 c0 -57 1 -60 24 -60 27 0 36 21 36 84 0 31 3
37 16 32 9 -3 24 -6 35 -6 17 0 19 -8 19 -65 0 -62 1 -65 24 -65 28 0 36 28
36 130 l0 68 -87 6 c-49 4 -120 9 -159 12 l-71 6 -6 -38z"/>
<path d="M1658 3616 c-54 -12 -100 -25 -104 -28 -3 -4 -3 -21 1 -38 5 -23 11
-29 23 -26 64 20 208 46 223 41 28 -9 52 -50 44 -75 -9 -28 -45 -44 -147 -65
-47 -10 -91 -21 -97 -25 -7 -4 -9 -19 -5 -38 5 -26 10 -31 28 -27 183 40 209
48 242 77 30 27 34 35 34 82 0 64 -27 112 -75 132 -43 18 -49 17 -167 -10z"/>
<path d="M6115 3528 c-23 -75 -27 -97 -27 -140 0 -52 18 -83 59 -99 24 -9 83
7 83 22 0 18 15 8 32 -21 14 -24 24 -30 50 -30 53 0 75 23 99 100 11 38 19 77
17 86 -2 13 -37 27 -143 56 -156 42 -164 43 -170 26z m94 -79 c29 -10 32 -15
26 -38 -9 -36 -24 -51 -49 -51 -31 0 -46 19 -46 55 0 48 12 54 69 34z m130
-35 c29 -6 32 -10 26 -33 -9 -36 -25 -52 -48 -49 -27 4 -41 30 -33 61 7 29 9
30 55 21z"/>
<path d="M1909 3308 c-14 -10 -14 -14 3 -46 36 -72 20 -123 -48 -154 -74 -32
-132 -5 -151 72 -7 28 -15 36 -38 38 -27 4 -28 3 -22 -38 6 -47 45 -112 82
-136 85 -55 229 -1 255 97 12 43 1 102 -28 152 -17 29 -28 32 -53 15z"/>
<path d="M6026 3228 c-13 -32 -13 -34 20 -63 l34 -30 -20 -44 -20 -43 -43 6
c-42 6 -44 6 -60 -29 -9 -19 -16 -35 -14 -35 1 0 76 -9 167 -20 91 -11 166
-20 167 -20 2 0 12 19 24 42 l22 42 -44 39 c-24 21 -83 72 -131 113 l-88 75
-14 -33z m157 -170 l52 -41 -49 6 c-27 4 -57 7 -67 7 -11 0 -19 4 -19 9 0 15
19 61 25 61 3 0 29 -19 58 -42z"/>
<path d="M5866 2895 c-9 -13 -16 -26 -16 -29 0 -2 17 -15 37 -28 51 -32 50
-31 57 -56 7 -22 7 -22 -77 -16 l-83 7 -22 -37 -21 -36 108 0 109 0 28 -77
c15 -43 29 -80 31 -83 7 -8 43 44 43 63 0 9 -14 47 -30 84 -17 36 -28 68 -26
70 2 2 30 -12 61 -33 60 -38 59 -38 85 8 8 13 -13 30 -124 102 -73 47 -135 86
-138 86 -3 0 -13 -11 -22 -25z"/>
<path d="M2097 2898 c-16 -12 -14 -18 19 -67 l37 -55 -29 -23 c-16 -12 -32
-23 -35 -23 -3 0 -20 23 -37 50 -31 50 -32 51 -57 34 l-25 -16 30 -43 c17 -24
30 -48 30 -53 0 -10 -50 -46 -54 -40 -2 2 -17 24 -35 51 -35 51 -39 53 -65 34
-17 -12 -15 -19 34 -93 29 -43 57 -79 64 -78 26 2 266 166 260 177 -30 55
-101 157 -110 157 -5 0 -18 -6 -27 -12z"/>
<path d="M5690 2640 l-22 -30 22 -35 21 -34 -28 -36 c-32 -41 -31 -40 -78 -18
-35 17 -36 17 -62 -10 -15 -14 -25 -28 -22 -30 2 -3 71 -35 153 -72 158 -73
161 -73 199 -23 l18 25 -86 144 c-48 79 -88 145 -90 147 -2 2 -13 -11 -25 -28z
m94 -202 c20 -29 34 -54 32 -56 -4 -3 -104 44 -115 54 -4 4 39 54 45 54 2 0
19 -23 38 -52z"/>
<path d="M2288 2566 c-43 -40 -55 -45 -140 -61 -120 -23 -122 -24 -93 -57 l23
-27 71 24 c39 13 71 19 71 14 0 -5 -14 -37 -30 -70 l-31 -60 25 -30 c14 -16
27 -26 29 -22 3 5 21 49 40 100 28 72 45 100 78 130 23 21 46 41 53 45 7 5 2
16 -14 32 -13 15 -26 26 -29 26 -3 -1 -27 -20 -53 -44z"/>
<path d="M2392 2322 l-111 -119 23 -22 c12 -11 25 -21 28 -21 6 0 120 117 183
188 l38 43 -25 25 -24 25 -112 -119z"/>
<path d="M5433 2373 l-23 -15 67 -82 c36 -44 71 -87 76 -94 5 -7 -28 4 -74 24
-159 69 -162 69 -192 49 -15 -9 -27 -22 -27 -27 0 -13 190 -248 200 -248 4 0
17 8 29 18 l22 17 -76 88 c-41 48 -73 87 -70 87 3 0 23 -9 45 -20 21 -11 73
-33 115 -50 l77 -31 34 26 34 26 -100 125 c-56 68 -104 124 -108 123 -4 0 -17
-7 -29 -16z"/>
<path d="M2595 2262 c-10 -133 -10 -134 -92 -157 -39 -11 -71 -24 -70 -30 0
-5 11 -18 24 -29 24 -18 25 -18 109 11 72 26 83 27 72 12 -7 -10 -26 -37 -43
-59 l-29 -42 24 -19 c14 -10 28 -18 32 -16 10 3 188 246 188 256 0 9 -50 45
-54 39 -33 -49 -72 -88 -88 -88 -18 0 -19 4 -13 53 3 28 8 64 11 78 4 21 -2
31 -30 52 l-34 27 -7 -88z"/>
<path d="M5088 2127 c-81 -47 -86 -51 -75 -74 13 -30 20 -29 79 8 28 16 51 29
52 27 1 -2 31 -52 66 -113 35 -60 65 -112 66 -113 2 -2 16 4 33 14 l30 18 -32
55 c-17 31 -54 95 -82 142 l-50 87 -87 -51z"/>
<path d="M2252 2161 c-23 -14 -10 -46 18 -46 20 0 25 5 25 25 0 26 -20 36 -43
21z"/>
<path d="M2861 2086 c-7 -36 -10 -74 -6 -85 5 -17 2 -21 -14 -21 -11 0 -32
-11 -47 -24 -37 -31 -38 -84 -3 -122 27 -30 140 -87 150 -76 9 9 149 270 149
277 0 2 -13 11 -29 20 l-29 15 -31 -55 c-34 -59 -38 -62 -66 -41 -15 11 -17
21 -12 57 4 24 9 53 12 64 5 15 -2 25 -24 38 -16 9 -31 17 -33 17 -2 0 -10
-29 -17 -64z m63 -169 c17 -12 17 -15 0 -50 -21 -43 -33 -46 -71 -13 -24 21
-26 26 -15 50 13 29 55 36 86 13z"/>
<path d="M4893 2028 c-13 -6 -23 -15 -23 -19 0 -8 119 -280 126 -288 2 -2 17
2 34 9 22 9 29 17 25 30 -14 43 -124 275 -132 276 -4 2 -18 -2 -30 -8z"/>
<path d="M3205 1956 c-41 -18 -57 -45 -99 -165 l-36 -102 26 -9 c14 -6 29 -10
34 -10 4 0 20 35 36 78 45 127 51 140 74 152 30 16 64 5 78 -25 10 -22 7 -42
-23 -134 -19 -59 -35 -110 -35 -113 0 -4 14 -11 30 -17 28 -9 32 -8 39 12 73
194 80 251 36 297 -24 25 -83 51 -116 50 -8 -1 -28 -7 -44 -14z"/>
<path d="M4597 1920 c-79 -30 -78 -30 -52 -116 13 -42 25 -78 28 -80 3 -3 30
2 60 11 51 15 55 18 48 38 -6 16 -16 21 -34 20 -20 -1 -28 5 -36 29 -14 38 -9
46 35 54 71 13 124 -34 124 -111 0 -64 -31 -94 -112 -109 -32 -6 -38 -11 -38
-33 0 -25 2 -25 49 -21 110 11 191 98 177 191 -19 125 -122 177 -249 127z"/>
<path d="M3560 1749 l-23 -130 -46 3 c-43 3 -46 1 -49 -24 -3 -29 -13 -25 140
-53 49 -9 92 -13 98 -10 5 3 10 17 10 29 0 20 -7 25 -40 30 -22 3 -40 12 -40
18 0 7 10 65 21 130 12 66 20 120 18 122 -2 2 -18 6 -35 9 l-30 6 -24 -130z"/>
<path d="M4388 1873 c-16 -2 -28 -7 -28 -11 0 -9 48 -270 55 -298 4 -18 9 -21
37 -15 38 8 38 -7 2 190 -13 74 -24 136 -24 138 0 1 -3 2 -7 2 -5 -1 -20 -4
-35 -6z"/>
<path d="M3965 1736 c-59 -25 -72 -100 -26 -147 52 -51 128 -34 151 35 25 77
-50 144 -125 112z"/>
<path d="M3104 1625 c-9 -23 3 -45 25 -45 20 0 37 32 26 50 -9 15 -45 12 -51
-5z"/>
<path d="M3201 1597 c-17 -21 -3 -47 26 -47 21 0 24 4 21 27 -3 31 -29 41 -47
20z"/>
<path d="M4720 1587 c-16 -8 -26 -23 -28 -40 -4 -32 8 -35 34 -6 13 15 26 19
46 15 31 -6 45 8 28 29 -15 18 -47 19 -80 2z"/>
<path d="M6931 6632 c-5 -10 -13 -63 -16 -118 l-7 -99 34 -55 c34 -57 70 -76
82 -45 3 9 9 57 12 108 6 81 4 99 -13 138 -21 45 -57 89 -73 89 -5 0 -14 -8
-19 -18z"/>
<path d="M1647 6605 c-3 -17 -11 -64 -17 -105 -6 -41 -13 -84 -15 -96 -4 -18
-19 -22 -125 -38 -67 -10 -120 -19 -118 -21 2 -1 44 -23 93 -48 138 -70 128
-53 105 -187 -11 -63 -20 -117 -20 -120 0 -2 40 36 89 84 l90 90 111 -58 111
-58 -56 113 -57 112 89 89 c100 102 109 93 -71 63 -49 -8 -91 -14 -92 -12 -1
1 -26 51 -57 112 -50 101 -55 107 -60 80z"/>
<path d="M6295 6519 c-28 -55 -53 -103 -56 -105 -3 -2 -57 5 -120 16 -63 11
-118 20 -124 20 -5 0 32 -40 84 -88 l94 -87 -57 -106 c-31 -58 -56 -109 -56
-113 0 -4 50 19 111 50 l110 58 88 -88 88 -88 -18 109 c-10 59 -19 115 -19
123 0 10 41 36 110 70 125 62 126 59 -29 80 -49 7 -94 16 -100 19 -6 4 -19 58
-28 119 -9 62 -19 112 -23 112 -3 0 -28 -45 -55 -101z"/>
<path d="M1054 6560 c-64 -7 -96 -24 -148 -78 -19 -21 -26 -37 -22 -48 6 -15
18 -16 102 -11 108 7 145 21 199 77 32 33 36 42 25 55 -13 16 -50 17 -156 5z"/>
<path d="M7106 6422 c-2 -4 -12 -48 -21 -97 -18 -97 -14 -132 26 -199 42 -72
65 -55 85 60 18 104 15 139 -21 200 -24 41 -55 58 -69 36z"/>
<path d="M925 6356 c-44 -7 -92 -19 -105 -26 -45 -23 -100 -83 -100 -108 0
-25 0 -25 78 -18 117 11 148 22 203 76 45 42 49 51 40 69 -13 24 -8 23 -116 7z"/>
<path d="M7261 6186 c-5 -12 -17 -59 -26 -102 -14 -63 -15 -87 -6 -119 14 -53
47 -105 66 -105 20 0 30 22 50 113 19 87 16 123 -14 191 -23 53 -55 63 -70 22z"/>
<path d="M763 6135 c-82 -19 -114 -36 -157 -87 -38 -44 -45 -72 -22 -81 22 -9
189 32 221 55 39 27 86 88 83 108 -4 20 -48 22 -125 5z"/>
<path d="M7411 5963 c-27 -52 -61 -187 -55 -221 9 -58 36 -107 61 -110 19 -3
25 7 52 93 36 111 36 106 16 173 -22 73 -54 102 -74 65z"/>
<path d="M626 5904 c-95 -29 -117 -42 -156 -96 -33 -45 -38 -75 -16 -84 20 -8
184 44 218 68 36 25 80 100 72 122 -8 21 -23 20 -118 -10z"/>
<path d="M7529 5703 c-66 -169 -70 -195 -41 -273 27 -70 49 -62 90 35 42 100
47 146 25 210 -14 38 -24 51 -40 53 -17 3 -26 -4 -34 -25z"/>
<path d="M506 5665 c-96 -36 -125 -58 -163 -123 -23 -39 -24 -45 -10 -59 13
-14 20 -14 68 2 111 36 156 63 188 114 33 51 39 86 18 94 -8 3 -53 -10 -101
-28z"/>
<path d="M847 5427 c13 -56 25 -111 26 -121 1 -14 -23 -34 -96 -79 -104 -65
-108 -77 -26 -77 25 0 74 -3 107 -6 l61 -7 28 -118 c16 -71 30 -114 35 -107 4
7 26 59 49 116 l42 103 46 -5 c25 -3 82 -8 126 -12 l79 -7 -96 82 -97 82 18
47 c11 26 31 73 45 106 14 32 26 62 26 67 0 5 -47 -20 -104 -56 l-104 -64 -86
74 c-48 41 -90 77 -95 79 -5 3 2 -40 16 -97z"/>
<path d="M7090 5455 c-47 -41 -92 -74 -100 -74 -8 0 -58 26 -110 59 -52 32
-96 58 -97 56 -1 -1 18 -50 42 -109 25 -58 45 -110 45 -114 0 -5 -40 -42 -90
-83 -103 -86 -103 -86 50 -72 113 11 104 17 156 -114 21 -52 40 -94 44 -94 4
0 17 47 30 104 12 57 26 109 29 115 4 5 58 15 121 21 63 6 116 12 117 14 2 2
-40 30 -93 62 -53 32 -98 64 -101 71 -3 8 7 61 21 120 15 58 25 107 24 109 -2
1 -41 -31 -88 -71z"/>
<path d="M7612 5395 c-32 -64 -42 -97 -42 -133 0 -87 26 -143 58 -123 6 3 29
44 51 91 44 90 49 132 27 205 -8 27 -18 41 -31 43 -16 2 -29 -14 -63 -83z"/>
<path d="M384 5411 c-86 -41 -121 -75 -145 -143 -22 -62 -4 -68 88 -28 104 44
136 70 166 130 45 91 18 101 -109 41z"/>
<path d="M7720 5173 c-55 -87 -72 -131 -71 -187 0 -67 15 -106 39 -106 13 0
34 27 68 88 45 79 49 92 48 148 -2 66 -16 104 -40 104 -8 0 -28 -21 -44 -47z"/>
<path d="M320 5169 c-93 -49 -135 -90 -156 -152 -27 -83 -1 -86 123 -17 60 34
78 50 103 93 32 55 39 102 17 110 -8 3 -46 -12 -87 -34z"/>
<path d="M7790 4905 c-76 -103 -81 -116 -78 -196 2 -56 7 -74 21 -83 14 -9 21
-6 41 19 42 52 88 133 96 169 12 53 1 125 -21 136 -15 9 -25 1 -59 -45z"/>
<path d="M233 4902 c-82 -54 -108 -83 -130 -147 -30 -91 -1 -97 112 -22 88 57
124 106 128 173 3 55 -21 54 -110 -4z"/>
<path d="M178 4635 c-83 -60 -114 -107 -120 -180 -4 -59 22 -57 110 7 89 65
130 137 123 216 -2 24 -38 11 -113 -43z"/>
<path d="M7878 4677 c-25 -21 -95 -111 -112 -145 -12 -23 -16 -52 -14 -100 3
-59 6 -67 24 -70 15 -2 34 16 77 73 63 84 82 137 72 201 -6 45 -24 60 -47 41z"/>
<path d="M150 4374 c-77 -65 -105 -108 -114 -176 -7 -49 1 -67 26 -68 12 0
147 119 163 144 18 27 37 120 29 141 -10 26 -37 16 -104 -41z"/>
<path d="M7856 4346 c-68 -77 -86 -118 -86 -190 0 -83 21 -83 97 1 73 79 96
129 91 199 -5 74 -30 72 -102 -10z"/>
<path d="M783 4219 l-72 -98 -116 39 c-63 21 -115 37 -115 34 0 -2 32 -46 70
-98 39 -52 70 -97 70 -100 0 -4 -32 -49 -70 -101 -39 -52 -64 -95 -57 -95 7 0
60 16 117 35 57 19 105 35 105 35 1 0 33 -43 71 -96 l69 -96 3 121 3 120 114
37 c63 20 113 40 110 44 -2 4 -54 22 -114 41 l-110 34 -3 121 -3 122 -72 -99z"/>
<path d="M7140 4196 l0 -124 -117 -38 -118 -37 115 -37 115 -37 5 -128 5 -127
73 101 c41 55 77 101 81 101 4 0 54 -16 111 -35 57 -19 105 -33 108 -31 2 3
-26 45 -62 94 -36 49 -66 95 -66 101 0 6 32 54 70 106 39 52 69 95 67 95 -2 0
-55 -18 -120 -39 l-116 -39 -72 99 c-39 54 -73 99 -75 99 -2 0 -4 -56 -4 -124z"/>
<path d="M129 4098 c-69 -65 -78 -79 -89 -128 -28 -127 4 -141 102 -43 70 69
98 125 98 193 0 24 -16 50 -30 50 -3 0 -40 -33 -81 -72z"/>
<path d="M7863 4067 c-76 -78 -97 -122 -91 -192 5 -59 27 -57 99 12 70 66 93
107 103 177 6 49 -4 76 -29 76 -6 0 -43 -33 -82 -73z"/>
<path d="M139 3838 c-75 -84 -89 -114 -89 -188 0 -89 18 -91 93 -9 78 85 90
111 91 189 1 58 -1 65 -19 68 -15 2 -37 -16 -76 -60z"/>
<path d="M7860 3800 c-80 -70 -97 -97 -106 -173 -5 -44 -3 -55 10 -60 19 -8
148 93 175 137 20 32 41 122 33 144 -8 25 -44 10 -112 -48z"/>
<path d="M206 3624 c-37 -37 -104 -132 -114 -163 -13 -36 -16 -109 -6 -135 13
-34 44 -16 98 57 65 86 76 112 76 181 0 68 -22 93 -54 60z"/>
<path d="M7849 3541 c-36 -27 -77 -62 -91 -79 -33 -40 -55 -126 -38 -147 7 -8
16 -15 19 -15 4 0 43 26 87 59 67 48 84 67 103 110 24 57 25 114 1 118 -8 2
-45 -19 -81 -46z"/>
<path d="M198 3301 c-58 -84 -75 -141 -62 -208 14 -72 38 -69 90 10 60 90 74
121 74 165 0 125 -32 135 -102 33z"/>
<path d="M7801 3268 c-44 -27 -90 -62 -101 -77 -37 -52 -51 -151 -22 -151 5 0
47 24 93 53 73 45 88 59 112 106 29 59 35 106 13 114 -7 3 -50 -17 -95 -45z"/>
<path d="M297 3102 c-8 -9 -34 -53 -57 -97 -40 -76 -42 -83 -36 -144 6 -67 22
-96 47 -86 24 9 109 178 109 216 0 97 -29 149 -63 111z"/>
<path d="M946 2979 c-15 -66 -33 -122 -39 -124 -7 -3 -64 -8 -127 -12 l-115
-8 105 -64 c58 -35 107 -65 109 -67 2 -2 -10 -58 -27 -124 -25 -100 -27 -119
-13 -108 9 8 48 41 86 74 39 33 75 64 82 67 7 4 58 -21 117 -57 l105 -65 -31
72 c-16 40 -38 93 -48 118 l-18 46 94 78 c51 43 93 80 91 81 -1 1 -53 -3 -115
-8 -61 -6 -118 -8 -125 -5 -7 3 -33 55 -57 116 -24 61 -44 111 -45 111 -1 0
-14 -54 -29 -121z"/>
<path d="M6980 2980 l-44 -110 -40 1 c-23 0 -78 4 -124 8 l-84 6 39 -35 c21
-19 63 -56 93 -81 l55 -47 -43 -103 c-24 -57 -46 -110 -49 -117 -3 -7 42 16
101 52 58 36 108 66 111 66 2 0 43 -34 91 -75 47 -42 88 -74 90 -72 3 2 -7 51
-21 108 -14 57 -25 109 -25 116 0 7 47 40 105 75 l106 63 -63 6 c-35 4 -91 7
-125 8 l-62 1 -10 37 c-6 21 -18 71 -27 113 -9 41 -19 78 -23 82 -4 4 -26 -42
-51 -102z"/>
<path d="M7755 3013 c-91 -46 -140 -94 -161 -156 -28 -84 1 -87 126 -13 63 36
81 53 104 95 27 50 32 101 11 107 -5 2 -41 -13 -80 -33z"/>
<path d="M331 2773 c-32 -66 -43 -100 -43 -135 0 -82 29 -139 59 -120 21 14
84 155 89 200 7 62 -15 136 -42 140 -16 2 -28 -14 -63 -85z"/>
<path d="M7640 2737 c-76 -38 -88 -48 -117 -97 -61 -101 -39 -119 82 -65 91
41 121 67 154 132 42 84 7 92 -119 30z"/>
<path d="M430 2533 c-42 -99 -47 -153 -23 -218 28 -76 49 -69 91 30 42 100 47
146 25 210 -13 36 -24 51 -39 53 -18 3 -27 -9 -54 -75z"/>
<path d="M7551 2490 c-41 -16 -88 -42 -104 -57 -56 -54 -81 -133 -41 -133 7 0
51 14 97 30 56 21 94 41 114 63 66 70 80 128 31 126 -13 0 -56 -13 -97 -29z"/>
<path d="M565 2358 c-60 -163 -66 -213 -34 -289 18 -40 26 -49 43 -47 17 2 27
20 48 83 34 100 35 157 6 215 -23 45 -54 63 -63 38z"/>
<path d="M7434 2246 c-39 -13 -81 -30 -93 -38 -34 -24 -80 -90 -81 -115 0 -30
29 -30 124 -2 81 24 126 54 163 110 47 72 14 85 -113 45z"/>
<path d="M697 2127 c-19 -16 -47 -132 -47 -196 0 -79 53 -172 82 -143 15 15
48 151 48 198 0 49 -34 139 -55 148 -7 2 -20 -1 -28 -7z"/>
<path d="M7305 2011 c-88 -22 -105 -31 -149 -83 -38 -43 -46 -75 -22 -84 22
-8 188 35 221 58 41 28 87 92 79 112 -8 20 -38 19 -129 -3z"/>
<path d="M1554 1975 c3 -16 10 -61 16 -100 6 -38 13 -80 16 -92 4 -20 -9 -29
-108 -79 l-113 -57 125 -21 125 -21 19 -124 19 -124 55 109 c30 60 56 111 58
113 3 3 53 -3 112 -12 59 -10 114 -17 122 -17 8 1 -25 39 -75 86 l-90 85 57
109 c32 61 55 110 50 109 -4 0 -54 -24 -112 -54 l-105 -53 -88 86 c-80 79 -88
84 -83 57z"/>
<path d="M6361 1916 l-85 -85 -105 54 c-57 30 -106 53 -108 51 -3 -2 20 -51
51 -108 l55 -103 -90 -91 -91 -92 83 14 c46 7 104 16 129 20 l45 6 55 -112 55
-111 18 123 c11 68 20 124 21 125 2 2 55 11 119 20 64 10 117 20 117 23 0 3
-47 29 -105 58 -74 36 -105 57 -105 69 0 10 7 58 16 107 8 48 14 95 12 102 -2
9 -36 -18 -87 -70z"/>
<path d="M826 1893 c-32 -111 -33 -211 -1 -274 44 -87 74 -76 93 32 18 101 15
140 -15 200 -30 57 -66 78 -77 42z"/>
<path d="M7159 1785 c-91 -15 -128 -33 -168 -82 -56 -68 -39 -81 87 -64 47 7
97 18 111 26 42 22 103 91 99 111 -4 24 -32 26 -129 9z"/>
<path d="M993 1692 c-18 -11 -35 -181 -22 -226 16 -60 58 -118 82 -114 27 4
36 41 40 148 2 77 -1 89 -26 132 -29 50 -56 71 -74 60z"/>
<path d="M6990 1570 c-86 -8 -121 -23 -170 -74 -28 -30 -32 -40 -24 -54 9 -14
24 -16 85 -14 96 4 137 15 187 52 51 37 68 65 51 86 -12 15 -14 15 -129 4z"/>
<path d="M1156 1478 c-11 -36 -14 -169 -5 -204 16 -57 68 -126 94 -122 18 3
21 13 28 89 10 102 0 147 -44 207 -30 41 -66 55 -73 30z"/>
<path d="M6718 1356 c-51 -18 -106 -66 -107 -93 -1 -30 29 -37 133 -31 86 6
111 14 161 56 40 33 49 50 35 68 -16 18 -170 19 -222 0z"/>
<path d="M2810 1220 c-41 -49 -80 -90 -85 -90 -6 0 -49 16 -95 36 -136 58
-132 56 -121 36 5 -9 34 -57 64 -106 l55 -90 -26 -32 c-15 -17 -51 -59 -80
-93 -30 -33 -48 -61 -40 -61 7 0 56 11 108 25 52 14 102 25 110 25 9 0 41 -43
75 -100 65 -110 72 -110 75 -10 1 30 5 77 8 104 l7 49 80 19 c44 10 98 23 120
29 l39 11 -109 45 c-61 24 -113 47 -117 51 -4 4 -2 56 3 115 6 60 9 113 7 118
-2 5 -37 -31 -78 -81z"/>
<path d="M5114 1295 c2 -11 7 -68 11 -126 l7 -106 -106 -43 c-58 -23 -106 -45
-106 -49 0 -4 35 -15 78 -25 42 -10 93 -22 114 -27 l36 -9 7 -120 c4 -66 10
-120 14 -120 3 0 33 45 65 100 35 59 66 100 75 100 9 0 62 -11 119 -25 57 -14
106 -25 109 -25 3 0 -25 35 -63 78 -37 42 -74 85 -82 94 -13 15 -8 28 47 116
33 55 61 102 61 105 0 3 -50 -15 -111 -40 l-112 -47 -31 35 c-17 19 -55 62
-84 95 -31 34 -51 51 -48 39z"/>
<path d="M1335 1289 c-10 -16 5 -189 20 -225 16 -38 73 -104 90 -104 8 0 17 5
21 12 13 20 4 190 -12 228 -29 68 -100 121 -119 89z"/>
<path d="M6495 1160 c-137 -70 -103 -115 82 -108 73 3 86 6 125 34 30 22 43
39 43 55 0 21 -6 25 -50 31 -97 12 -158 9 -200 -12z"/>
<path d="M1534 1106 c-10 -26 13 -185 33 -223 25 -48 86 -98 109 -89 15 6 16
16 10 84 -10 112 -22 149 -68 198 -41 44 -74 56 -84 30z"/>
<path d="M3964 976 l-40 -118 -122 1 c-67 1 -122 0 -122 -3 0 -3 45 -37 99
-77 l99 -71 -39 -116 c-21 -64 -38 -117 -36 -118 1 -1 47 31 102 71 l99 73 44
-31 c24 -18 70 -51 102 -75 l59 -42 -40 117 c-26 80 -36 120 -29 128 6 7 51
41 101 76 l91 64 -128 5 -128 5 -36 115 -37 115 -39 -119z"/>
<path d="M6270 983 c-103 -54 -92 -84 40 -102 95 -12 126 -7 196 34 74 43 58
67 -59 84 -108 15 -118 15 -177 -16z"/>
<path d="M1744 945 c-8 -21 15 -153 35 -200 30 -68 115 -128 136 -95 8 13 -23
177 -40 210 -18 34 -90 100 -110 100 -9 0 -18 -7 -21 -15z"/>
<path d="M6042 825 c-54 -25 -73 -48 -54 -67 18 -18 188 -47 225 -38 17 4 51
17 75 29 34 17 43 27 40 44 -2 18 -15 24 -78 39 -102 23 -146 22 -208 -7z"/>
<path d="M1964 795 c-8 -21 32 -180 53 -212 22 -33 90 -83 113 -83 28 0 30 22
9 106 -26 100 -39 124 -91 168 -44 38 -75 46 -84 21z"/>
<path d="M5810 691 c-90 -38 -79 -65 42 -99 98 -28 131 -27 196 3 76 35 72 58
-15 85 -97 31 -168 34 -223 11z"/>
<path d="M2193 664 c-10 -27 45 -181 79 -220 39 -44 99 -76 119 -64 12 8 11
19 -4 77 -26 103 -56 153 -111 191 -54 36 -74 40 -83 16z"/>
<path d="M5579 575 c-50 -16 -74 -37 -66 -58 6 -16 182 -78 217 -76 14 0 48 8
75 18 41 15 50 22 50 41 0 21 -11 28 -75 52 -93 36 -142 42 -201 23z"/>
<path d="M2427 547 c-8 -20 60 -178 91 -210 29 -31 92 -67 116 -67 27 0 25 31
-5 107 -38 97 -60 127 -113 158 -47 27 -81 32 -89 12z"/>
<path d="M5310 466 c-23 -8 -36 -20 -38 -34 -3 -18 9 -27 74 -57 100 -46 138
-51 208 -31 44 13 56 21 56 37 0 16 -18 29 -77 56 -87 41 -165 51 -223 29z"/>
<path d="M2674 446 c-7 -17 48 -138 83 -184 15 -20 49 -45 80 -59 51 -23 56
-24 71 -9 15 15 13 22 -23 97 -44 89 -71 121 -127 150 -44 22 -77 24 -84 5z"/>
<path d="M5053 383 c-27 -5 -45 -26 -38 -45 3 -8 45 -34 94 -58 84 -41 92 -43
156 -38 69 6 100 23 90 49 -3 8 -44 34 -90 57 -85 42 -135 50 -212 35z"/>
<path d="M2924 365 c-7 -17 70 -156 106 -190 15 -14 50 -34 77 -45 42 -16 53
-17 68 -6 17 12 15 19 -31 101 -51 92 -77 116 -145 140 -52 19 -68 19 -75 0z"/>
<path d="M3193 313 c-7 -3 -13 -12 -13 -21 0 -23 77 -137 116 -171 51 -45 148
-67 160 -37 6 15 -78 147 -113 178 -33 30 -125 61 -150 51z"/>
<path d="M4778 314 c-10 -3 -18 -15 -18 -27 0 -17 20 -34 81 -71 66 -41 92
-51 138 -54 31 -2 68 1 84 7 48 19 34 44 -50 97 -72 45 -83 49 -148 51 -38 1
-78 -1 -87 -3z"/>
<path d="M3448 264 c-17 -17 -5 -42 53 -113 63 -76 111 -106 178 -113 23 -2
37 2 44 14 16 25 -89 160 -146 187 -47 23 -118 37 -129 25z"/>
<path d="M4503 255 c-9 -26 5 -42 85 -99 68 -47 78 -51 143 -54 69 -4 99 6 99
33 0 6 -37 38 -82 71 -81 58 -83 59 -160 63 -67 3 -79 1 -85 -14z"/>
<path d="M3708 234 c-16 -15 -7 -32 48 -92 73 -81 102 -100 169 -113 55 -10
85 -2 85 22 0 18 -123 145 -156 162 -39 20 -134 34 -146 21z"/>
<path d="M4233 224 c-5 -13 6 -29 43 -62 90 -83 129 -102 205 -102 91 0 99 19
32 77 -97 86 -119 97 -199 101 -64 4 -75 2 -81 -14z"/>
<path d="M3977 223 c-19 -18 0 -48 68 -107 79 -69 127 -90 193 -84 29 2 38 8
40 24 4 29 -124 149 -175 163 -43 12 -116 14 -126 4z"/>
</g>
</svg>
