<svg id="Layer_1" enable-background="new 0 0 68 68" height="512" viewBox="0 0 68 68" width="512" xmlns="http://www.w3.org/2000/svg"><g id="Data_Science"><g><path d="m59 2h-35.5c-3.8 0-7 3.1-7 7v15.9h-3.5c-1 0-1.7.8-1.7 1.7v3.5c0 1 .8 1.7 1.7 1.7h1.2v7.2l-6.7 9.7c-.2.1-.3.2-.4.4l-3.9 5.6c-1.6 2.2-1.7 5-.4 7.4s3.7 3.9 6.4 3.9h49.8c3.8 0 7-3.1 7-7v-50c0-3.9-3.1-7-7-7zm5 57c0 2.7-2.2 4.9-4.9 4.9h-22.2c.5-.5 1-1.1 1.4-1.8.5-.9.8-2 .8-3 .3-.3.4-.6.4-1v-14.9c0-.8-.7-1.5-1.5-1.5h-3.7c-.8 0-1.5.7-1.5 1.5v4.5l-6-8.7v-7.1h1.2c1 0 1.7-.8 1.7-1.7v-3.5c0-1-.8-1.7-1.7-1.7h-9.5v-16c0-2.7 2.2-4.9 4.9-4.9h35.6c2.7-.1 5 2.1 5 4.9zm-47.8-19.1c.1-.2.2-.4.2-.6v-7.4c.2 0 8.5 0 8.4 0v7.4c0 .2.1.4.2.6l5 7.3c-4.3-1.3-8.1-.6-11.4.4-.3.1-.7.2-1 .3s-.6.2-.9.3c-.1 0-.1 0-.2.1-2.7.8-4.8 1.4-6.7 1zm10 17.7c0-.8.6-1.4 1.4-1.4s1.4.6 1.4 1.4-.6 1.4-1.4 1.4-1.4-.6-1.4-1.4zm-4-3.8c-.9 0-1.6-.7-1.6-1.6s.7-1.6 1.6-1.6 1.6.7 1.6 1.6-.7 1.6-1.6 1.6z"/><path d="m58.4 12.7h-16.1c-.6 0-1 .5-1 1 0 .6.5 1 1 1h16.1c.6 0 1-.5 1-1s-.4-1-1-1z"/><path d="m58.4 19h-22c-.6 0-1 .5-1 1 0 .6.5 1 1 1h22c.6 0 1-.5 1-1s-.4-1-1-1z"/><path d="m58.4 25.3h-24.6c-.6 0-1 .5-1 1 0 .6.5 1 1 1h24.6c.6 0 1-.5 1-1s-.4-1-1-1z"/><path d="m47.7 50h-3.7c-.8 0-1.5.7-1.5 1.5v6.6c0 .8.7 1.5 1.5 1.5h3.7c.8 0 1.5-.7 1.5-1.5v-6.6c0-.8-.6-1.5-1.5-1.5z"/><path d="m57.4 44.5h-3.7c-.8 0-1.5.7-1.5 1.5v12.1c0 .8.7 1.5 1.5 1.5h3.7c.8 0 1.5-.7 1.5-1.5v-12.1c0-.8-.7-1.5-1.5-1.5z"/><path d="m18.6 43.9c.2.1.4.2.6.2.8 0 1.4-.6 1.4-1.4s-.6-1.4-1.4-1.4c-.2 0-.4.1-.6.2-.4.2-.7.7-.7 1.2s.3 1 .7 1.2z"/><path d="m21.5 37c.5 0 .9-.4.9-.9s-.4-.9-.9-.9-.9.4-.9.9.4.9.9.9z"/><path d="m27.9 8.9c-2.4 0-4.3 1.9-4.3 4.2 0 2.4 1.9 4.3 4.3 4.3 2.3 0 4.2-1.9 4.2-4.3.1-2.3-1.8-4.2-4.2-4.2z"/><path d="m43.6 42.2c0 1.3 1 2.3 2.3 2.3s2.3-1 2.3-2.3c0-.2 0-.4-.1-.6l6.5-5.7c.3.2.6.2 1 .2 1.3 0 2.3-1 2.3-2.3s-1-2.3-2.3-2.3-2.3 1-2.3 2.3v.4l-6.6 5.8c-.5-.2-1.1-.2-1.6-.1l-6.7-6.8c.1-.2.1-.5.1-.7 0-1.3-1-2.3-2.3-2.3s-2.3 1-2.3 2.3c0 1.5 1.5 2.7 3 2.2l6.7 6.8c.1.3 0 .6 0 .8z"/></g></g></svg>